# xmcd
#
# Track frame offsets: 
#        150
#        20267
#        39937
#        57571
#        84354
#        109791
#        131431
#        161208
#        183734
#        197612
#        222904
#
# Disc length: 3094 seconds
#
# Revision: 0
# Processed by: cddbd v1.5.2PL0 Copyright (c) Steve Scherf et al.
# Submitted via: ExactAudioCopy v0.95a4
#
DISCID=940c140b
DTITLE=Mike Henderson Band - If You Think It's Hot Here
DYEAR=2015
DGENRE=Blues
TTITLE0=I Wanta Know Why
TTITLE1=Send You Back To Georgia
TTITLE2=It's Alright
TTITLE3=If You Think It's Hot Here
TTITLE4=Weepin' And Moanin'
TTITLE5=Mean Red Spider
TTITLE6=If I Had Possession
TTITLE7=Unseen Eye
TTITLE8=Matchbox
TTITLE9=Gamblin' Blues
TTITLE10=Rock House Blues
EXTD=
EXTT0=
EXTT1=
EXTT2=
EXTT3=
EXTT4=
EXTT5=
EXTT6=
EXTT7=
EXTT8=
EXTT9=
EXTT10=
PLAYORDER=
